<svg xmlns="http://www.w3.org/2000/svg" viewBox="0 0 640 640" role="img" aria-labelledby="title desc">
  <title id="title">Default cricket player placeholder</title>
  <desc id="desc">A colorful cricket player silhouette with bat and ball.</desc>
  <defs>
    <linearGradient id="bg" x1="0" x2="1" y1="0" y2="1">
      <stop offset="0%" stop-color="#0ea5e9"/>
      <stop offset="45%" stop-color="#22c55e"/>
      <stop offset="100%" stop-color="#fbbf24"/>
    </linearGradient>
    <linearGradient id="shirt" x1="0" x2="1" y1="0" y2="1">
      <stop offset="0%" stop-color="#7c3aed"/>
      <stop offset="100%" stop-color="#2563eb"/>
    </linearGradient>
  </defs>
  <rect width="640" height="640" rx="96" fill="url(#bg)"/>
  <circle cx="500" cy="135" r="48" fill="#ef4444" opacity=".95"/>
  <path d="M482 98c20 22 34 46 43 74M515 93c-10 35-9 61 5 84" fill="none" stroke="#fff" stroke-width="8" stroke-linecap="round" opacity=".85"/>
  <path d="M164 132l44-26 262 407c11 17 6 40-11 51s-40 6-51-11L146 146c-4-6 11-11 18-14z" fill="#a16207"/>
  <path d="M148 115l33-20c14-8 32-4 40 10l9 14-84 51-9-14c-8-14-4-32 11-41z" fill="#fde68a"/>
  <circle cx="315" cy="190" r="72" fill="#fee2c5"/>
  <path d="M223 332c0-63 51-114 114-114h11c63 0 114 51 114 114v150H223V332z" fill="url(#shirt)"/>
  <path d="M252 500h182l31 89H221l31-89z" fill="#111827" opacity=".88"/>
  <path d="M206 346c-45 35-73 77-84 127" fill="none" stroke="#fee2c5" stroke-width="42" stroke-linecap="round"/>
  <path d="M473 350c43 28 75 65 97 112" fill="none" stroke="#fee2c5" stroke-width="42" stroke-linecap="round"/>
  <path d="M250 149c16-47 54-73 105-65 38 6 66 31 78 70-52-24-113-28-183-5z" fill="#111827"/>
  <path d="M263 380h159" stroke="#fff" stroke-width="16" stroke-linecap="round" opacity=".9"/>
  <path d="M297 423h91" stroke="#fbbf24" stroke-width="14" stroke-linecap="round" opacity=".95"/>
</svg>
